# xmcd CD database file
#
# Track frame offsets:
#	150
#	13947
#	27788
#	41717
#	58062
#	70434
#	85113
#	97483
#	111321
#	125861
#	137631
#	151429
#	165751
#	178572
#	191454
#	205548
#	219191
#	235284
#	250792
#	264116
#	288527
#	308378
#
# Disc length: 4303 seconds
#
# Revision: 0
# Processed by: cddbd v1.5.2PL0 Copyright (c) Steve Scherf et al.
# Submitted via: CDex 1.51
#
DISCID=3310cd16
DTITLE=Various Artist - The Dixieland Collection Disc 2
DYEAR=2006
DGENRE=Jazz
TTITLE0=Bix Beiderbecke and His Gang - Royal Garden Blues
TTITLE1=Red Nichols And His Five Pennies - Riverboat Shuffle
TTITLE2=King Oliver and His Dixie Syncopaters - West End Blues
TTITLE3=Eddie Condon's Hot Shots - I'm Gonna Stomp Mr. Henry Lee
TTITLE4=Tommy Ladnier and His Orchestra - When You And I Where Young Maggie
TTITLE5=The New Orleans Feetwarmers - I Found A New Baby
TTITLE6=Johnny Dodds Black Bottom Stompers - Joe Turner's Blues
TTITLE7=Bix Beiderbecke - Jazz Me Blues
TTITLE8='Banjo' Ikey Robinson And His Band - Got Butter On It
TTITLE9=Jack Bland And His Rhythm Makers - Who Stole The Lock (On The Hen House Door?)
TTITLE10=Louis Armstrong And His Hot Seven - Alligator Crawl
TTITLE11=Louis Armstrong And His Hot Seven - Twelfth Street Rag
TTITLE12=The New Orleans Feetwarmers - Sweetie Dear
TTITLE13=Jelly Roll Morton's Red Hot Peppers - Kansas City Stomp
TTITLE14=Sidney Bechet and His New Orleans Feetwarmers - Hindustan
TTITLE15=George Wetting's Rhythm Kings - I Wish I Could Shimmy Like My Sister Kate
TTITLE16=Bunk Johnson's Jazz Band - Franllin Street Blues
TTITLE17=Eddie Condon and His Band - Nobody's Sweetheart
TTITLE18=Kid Ory and His Creole Jazz Band - Original Dixieland One-Step
TTITLE19=Bechet-Mezzrow Feetwarmers - Old Fashioned Love
TTITLE20=Muggsy Spanier and His Ragtime Band - Sweet Sue, Just You
TTITLE21=Sidney Bechet and His New Orleans Feetwarmers - At A Georgia Camp Meeting
EXTD=YEAR: 2006
EXTT0=
EXTT1=
EXTT2=
EXTT3=
EXTT4=
EXTT5=
EXTT6=
EXTT7=
EXTT8=
EXTT9=
EXTT10=
EXTT11=
EXTT12=
EXTT13=
EXTT14=
EXTT15=
EXTT16=
EXTT17=
EXTT18=
EXTT19=
EXTT20=
EXTT21=
PLAYORDER=
